Coordinates
version=1
nRows=58
nColumns=6
inDegrees=yes

Units are S.I. units (second, meters, Newtons, ...)
If the header above contains a line with 'inDegrees', this indicates whether rotational values are in degrees (yes) or radians (no).

endheader
time	foot_tx	hip_flexion_r	knee_angle_r	ankle_angle_r	lumbar
     84.60000000	      0.28473950	     64.65148914	    -58.11655827	     -5.84437690	     -6.05062678
     84.61000000	      0.28474361	     64.68501242	    -58.11841632	     -5.84678080	     -6.07988445
     84.62000000	      0.28474485	     64.72179002	    -58.12048946	     -5.84932570	     -6.11384116
     84.63000000	      0.28473987	     64.68470013	    -58.12464586	     -5.84636909	     -6.24788137
     84.64000000	      0.28473717	     64.73316065	    -58.12519307	     -5.85082871	     -6.29133334
     84.65000000	      0.28475212	     64.69281788	    -58.12009050	     -5.85490868	     -6.45506520
     84.66000000	      0.28473485	     64.75598825	    -58.12072955	     -5.85983810	     -6.51212678
     84.67000000	      0.28473436	     64.70104950	    -58.11512196	     -5.86291164	     -6.72894262
     84.68000000	      0.28472926	     64.70042931	    -58.10846452	     -5.86954019	     -6.89990451
     84.69000000	      0.28472536	     64.70119847	    -58.09907723	     -5.87803171	     -7.09057844
     84.70000000	      0.28471439	     64.70537283	    -58.08820553	     -5.88708599	     -7.30135364
     84.71000000	      0.28470579	     64.71430719	    -58.07439080	     -5.89817179	     -7.53080938
     84.72000000	      0.28468962	     64.73082096	    -58.05884243	     -5.90989168	     -7.77844259
     84.73000000	      0.28467311	     64.75763118	    -58.04083478	     -5.92314919	     -8.04104222
     84.74000000	      0.28465532	     64.79829412	    -58.02082323	     -5.93761224	     -8.31540312
     84.75000000	      0.28464368	     64.84852345	    -57.99550571	     -5.95512601	     -8.60776129
     84.76000000	      0.28460397	     64.93005261	    -57.97586885	     -5.96810342	     -8.89397338
     84.77000000	      0.28457609	     65.02905433	    -57.95179643	     -5.98394564	     -9.18876087
     84.78000000	      0.28454423	     65.15240164	    -57.92679462	     -5.99961320	     -9.48575482
     84.79000000	      0.28450928	     65.30353465	    -57.90198023	     -6.01442199	     -9.78086041
     84.80000000	      0.28447287	     65.48397400	    -57.87719945	     -6.02831960	    -10.07271535
     84.81000000	      0.28443948	     65.69557692	    -57.85228853	     -6.04149666	    -10.35917804
     84.82000000	      0.28440382	     65.97068456	    -57.83043415	     -6.05340306	    -10.60183110
     84.83000000	      0.28434039	     66.26769669	    -57.81803629	     -6.05582407	    -10.85305567
     84.84000000	      0.28433430	     66.57014159	    -57.78814084	     -6.06863602	    -11.13075816
     84.85000000	      0.28428662	     66.90221808	    -57.77634833	     -6.06605429	    -11.40887284
     84.86000000	      0.28425271	     67.25338049	    -57.76260202	     -6.06235229	    -11.70031061
     84.87000000	      0.28422885	     67.62497805	    -57.74804688	     -6.05647696	    -12.00491889
     84.88000000	      0.28420587	     68.12752279	    -57.73540463	     -6.05268435	    -12.19111213
     84.89000000	      0.28418079	     68.61052016	    -57.72421223	     -6.04167589	    -12.44248891
     84.90000000	      0.28416162	     69.12940320	    -57.71362274	     -6.02781582	    -12.69247714
     84.91000000	      0.28414243	     69.68367812	    -57.70177699	     -6.01128603	    -12.94469927
     84.92000000	      0.28412701	     70.27433056	    -57.68801545	     -5.99266612	    -13.19858850
     84.93000000	      0.28411376	     70.89935367	    -57.67126570	     -5.97195555	    -13.45811916
     84.94000000	      0.28409146	     71.56780915	    -57.65465412	     -5.94682085	    -13.71342524
     84.95000000	      0.28406566	     72.27593288	    -57.63279240	     -5.91988815	    -13.97043185
     84.96000000	      0.28404740	     73.02540304	    -57.60257025	     -5.89328896	    -14.22583584
     84.97000000	      0.28400639	     73.83284698	    -57.57543511	     -5.85876109	    -14.45884000
     84.98000000	      0.28396076	     74.69134266	    -57.54348527	     -5.82070220	    -14.67622405
     84.99000000	      0.28392638	     75.60141753	    -57.49970130	     -5.78312083	    -14.87485649
     85.00000000	      0.28386446	     76.58362759	    -57.45913402	     -5.73497282	    -15.02702216
     85.01000000	      0.28379152	     77.62556729	    -57.41637974	     -5.67841369	    -15.14314633
     85.02000000	      0.28370424	     78.74188320	    -57.37620225	     -5.60994993	    -15.19943553
     85.03000000	      0.28360609	     79.92992909	    -57.33797804	     -5.52854644	    -15.19333168
     85.04000000	      0.28349951	     81.18966896	    -57.30310849	     -5.43204935	    -15.11798336
     85.05000000	      0.28338794	     82.51781839	    -57.27302120	     -5.31816632	    -14.96999373
     85.06000000	      0.28327265	     83.90769390	    -57.25064289	     -5.18361106	    -14.74961278
     85.07000000	      0.28316198	     85.35237574	    -57.23494260	     -5.02795752	    -14.45705156
     85.08000000	      0.28306067	     86.84474397	    -57.23002181	     -4.84780084	    -14.09255580
     85.09000000	      0.28297279	     88.36377728	    -57.23665861	     -4.64152142	    -13.67394331
     85.10000000	      0.28290276	     89.89362166	    -57.25844033	     -4.40657686	    -13.21287473
     85.11000000	      0.28285988	     91.42868582	    -57.29489854	     -4.14371265	    -12.70838625
     85.12000000	      0.28284791	     92.94689218	    -57.35023331	     -3.85089687	    -12.18079159
     85.13000000	      0.28286771	     94.43584979	    -57.42842702	     -3.52697713	    -11.63875271
     85.14000000	      0.28292229	     95.87552155	    -57.53478250	     -3.17037039	    -11.10153060
     85.15000000	      0.28301514	     97.25573723	    -57.67212795	     -2.78210163	    -10.57621903
     85.16000000	      0.28314601	     98.56573906	    -57.84569089	     -2.36154216	    -10.07106955
     85.17000000	      0.28331355	     99.79293432	    -58.06029855	     -1.90859290	     -9.59734829
